<svg xmlns="http://www.w3.org/2000/svg" id="Capa_2" data-name="Capa 2" viewBox="0 0 1224.57 349.01"><defs><style>.cls-1{fill:#0a0808}.cls-2{fill:#fbf9ec}.cls-3{fill:#99724c}</style></defs><g id="Capa_1-2" data-name="Capa 1"><path d="m79.89 5.24-.12 49.58c0 1.05-.31 2.53.2 3.14.41.49 1.24 1.03 2.82 1.32l.08 29.4 6.34.24c-2.54-10.68 3.8-8.95 3.67-12.69-.05-1.42.41-4.5 1.82-5.62l7.41-1.01c-.11-2.43-1.03-6.67 1.23-8.25l7.6-1.66.5-11.14 20.19.05 1.01-12.17 11.77-.98c-1.55-1.94-1.5-7.41 1.53-7.42l45.72-.14c1.76 0 2.01 3.16 2.39 3.88 1.32 7.01.62 14.42.83 22.21.03 1.13 3.94 1.5 4.53.48l4.05-7.02c3.37-.63 6.66-.43 10.44-.42l72.89.26c1.37 2.57 1.56 4.67 2.19 7.46l12.51.41c2.57.08 2.04 3.71 2.44 5.62.68 3.16 9.49-1.62 10.79 4.05.46 2.02 1.65 3.41 2.81 3.92 1.26.56 4.22.34 4.26-.73l.55-14.03 50.35.09c3.36.75 4.84 6.29 7.06 7.97 1.29.98 4.71-.56 5.49.59 2.17 3.19.23 7.55 4.13 8.68 3.34.97 4.84 3.68 4.45 7.37l6.47.71 1.1 7.59 9.96 1.51c.58 3.48-.08 7.86 1.56 11.22 1.55-.03 4.06-1.12 5.05.28l.2 15.63c.01.74 2.67.91 3.12.31.41-.55.13-2.02.14-3.1l.12-12.56.48-43.13c2.58-.99 5.43-2.92 8.04-2.94l40.43-.23 6.03 6.87c.27 1.43.2 3.73 1.21 4.35.68.41 2.96.41 3.37 1.08.73 1.82 1.19 4.35 4.12 4.2l1.47 6.36c3.17.2 3.84 2.95 5.66 4.46 2.23 1.86 8.5-.18 9.03-2.77l1.75-8.47 7.49-.44.67-7.28c1.66-3.65 6.31-3.08 9.07-4.13 2.58-1.45 1.61-6.06 1.89-9.11l94.39-.04c1.29 1.36 2.36 4.03 4.04 3.62l5.63-1.36 235.35.26c1.63 0 1.27 4.19 1.22 5.43l-.62 18.24c-.84 2.72-2.24 3.21-2.23 6.66l.24 122.08c4.05.74 7.3.12 10.44.1l35.86-.25.07-144.93 6.6-1.42 1.69-5.8 52.05-.12c1.5 0 3.13-1.68 4.24-2.58h80.1c.89.09 1.18 3.06 1.14 3.95-.1 2.64 1.92 5.41 5.26 4.99 1.55-.19 3.36.33 4.04 1.24 1.67 2.22-.16 6.76 2.03 8.11.73.45 2.71.29 4.1.43l2.1 6.27c2.55.27 6.84.68 7.6 3.77.42 1.7-1.11 5.65 1.61 6.76 1.46.6 4.64.09 5.6 1.75.84 1.46.43 3.48.91 5.73.92 4.29 8.45 6.66 11.44 3.37.93-1.02.16-4.57 1.19-5.25 2.92-1.92 10.54-1.88 10.7-4.94l.89-17.09c2.89-.41 7.04.38 9.45-1.91 1.55-2.15 1.19-8.65 4.65-8.85l11.25-.65.53-3.6c1.79-1.02 2.93-2.79 3.96-4.35l11.67-.25c-.03-.99.12-3.46.99-3.89l8.18-1.09 1.93-6.86c3.31-1.2 6.37-.72 9.79-1.13l1.67-7.72c3.47 1.78 5.97-1.48 7.88-2.58l31.26-.27c1.65 2.83 1.6 5.3 1.54 7.81l-.94 35.75c-1.99-.32-4.16-.44-5.24.31-.72.5-.88 2.55-.84 3.87l-6.27.19.33 15.86-8.21.09.12 9.85-6.89.11-.06 11.8-6.04.07-.24 12.98-6.8.16-.12 7.77c-2.61.61-4.86.48-7.73.38l-.1 12.17c-2.83-.54-5-.87-8.13-.06-.12 2.29 1.05 6.37-.37 8.5-1.92 2.89-2.96 4.95-2.03 9.29-3.69.15-6.5.5-9.18 2.1l-.31 15.89c-.03 1.7 1.29 2.58 2.69 2.57.75 0 1.64-1 1.93-1.82l2.84 8.92c.35 1.11 1.49 1.83 1.37 2.58-.1.64-1.77 2.21-1.57 2.97.58 2.23 4.87 4.49 7.5 3.23-.19 1.3.21 3.77 2.34 3.92 1.26.09 4.84-.41 5.07 1.28l1.42 10.44c1.28-.01 3.01-.05 3.61.17.55.2.31 1.81.78 2.49 4.37 6.21.98 11.02 2.69 12.22 1.01.71 5.89-.36 7.03 1.82.69 1.31.36 2.94.36 4.15l.02 9.99 5.78-.27c1.4-.31 3.1.28 3.14 1.72l.1 3.35c-.59 2.57.79 5.34.8 8.24l.21 40.82-7.66.22.59 30.39-32.01-.26c-.29-1.02-1.52-2.33-1.26-3.79.32-1.84.21-6.01-1.91-6.92-2.74-1.18-5.86-.36-8.74-.6l-.04-8.15-8.03.12-.33-9.32c-4.66 1.48-7.31 0-9.57-2.37s-1.22-5.62-.82-9.27l-12.38-.29-1.25-12.19-12.18.3c-1.8-2.44-.38-5.45-.92-7.7l-1.83-7.71c-.63-2.66-5.05-.79-6.73-.63-2.09.2-3.02-3.43-2.07-5.28-2.94-.92-5.05-.63-8.02-.32l-.3 4.75c-1.34-.36-4.82-.21-5.23 1.28-1.1 3.94-.31 7.74-.4 11.82l-8.15-.31.03 12.32-21.68.57-.25 9.19c-3.28-.25-5.74-.58-8.87.11l.19 9.1-15.21.05-.08 12.87-14.89.12-.02 11.98-29.37.4c-3.12-2.02-.33-9.18-2.28-10.29-1.6-.91-10.15.82-10.17-4.03l-.06-14.96-.15-11.33-27.01.23-.06-.88.1-9.75-20.14-.06-.02-6.71-58.85.17c-.99 0-1.77 2.53-2.18 3.19l-20.99.08-.31 10.39-41.76-.27c-.72-2.18-1-4.1-.76-7.03-3.48-.02-6.19.38-9.78-.55v-59.5c0-11.39.96-22.78-.64-34.13l-.9 11.01c-.23 2.83-6.13 2.63-8.32 1.24l.17 7.82-48.48-.1v34.28l-9.43-.16-.07 18.58-7.61.06.06 18.25-10.85.12-.57 9.49-6.49-.27-.19 14.48-9.87.3-.28 12.81c-6.7.08-13.14.64-19.65-.6l-.47-12.92c-3.71 1.24-6.24 1.93-9.57 1.78v36.14l-12.7-.13-2.51-.14c.91-1.13 1.36-3.1.81-5.08-.4-1.46-2.63-.47-3.38-.91-1.37-1.01-4.05-.17-5.79-.64-3.1-.84-1.55-6.38-2.71-8.11-.85-1.27-4.87.02-5.3-1.18-.52-1.45-.51-3.02-.48-5-1.4.64-2.81.67-3.63.19-3.19-1.85-2.21-9.32-2.47-15.27-.07-1.66-3.86-2.31-6.14-1.72-2.24-6.56-1.29-12.88-.93-19.75l-11.24.07c.24 3.92.23 7.39-.64 11.43l-56.64.07c-.1-2.72-2.9-3.57-3.01-5.3l-.41-6.65-19.66-.19-.1-9.33-9.98-.57-.1-11.98-9.96.82v41.73l-29.27-.19c-1.21-2.24-.91-4.64-.8-7.27l-7.67-.33c.05-.35-.27-1.09-.46-1.4-.27-2.75-.83-6-4.63-6.48l-.49-6.84-8.68-.13-.11-8.16c-8.62-2.19-7.11-7.92-7.03-18.61l-11.24-.6c-.76-2.73-.61-4.84-.64-7.71l-15.11-.84-.15 11.73c-3.53 1.35-6.79 1.65-10.68 1.43v19.64l-5.37.31.14 17.9-38.72-.07c.32-1.89-1.02-3.59-1.96-4.65-1.56-1.75-3.98-1.03-5.82-1.67-6.28-2.17.21-14.19-6.34-12.18l-.3-23.36c-3.72-.47-6.54-.59-9.53.06.28 3.1 1.87 8.06-.86 10.04l-10.19 1.7c2.89 3.24 2.97 8.92-.98 10.16l-7.13.04-.11 8.81-19.64.08-.34 8.26-61.98.1c-1.15-.75-1.1-3.78-.86-5.28l-17.82-.23-.25-10.83-11.44.02c-.53.91-.71 2.75-.46 3.35s2.32.36 3.03.45l5.68 5.21.19 35.95-41.42-.15c.33-1.78-.26-4.71-1.37-4.74l-10.93-.33-.06-6.49-11.79-.24-.44-7.41c-1.52.67-3.31 1.22-4.15.75-.92-.52-1.25-3.08-.5-4.92l-11.18.1-.29-8.32c-3.06-.45-6.52-.82-9.3.33-.24.58-1.41 1.98-1.72.92l-.57-1.75-.16-2.94c-.15-2.64.42-5.42-.52-7.94-2.18-.13-4.19-.17-5.82.25-1.22.32-1.65 2.37-1.82 4l-4.25-.03.5-16.01-6.76-.17c-.11-1.27-.1-2.85.15-3.53.52-1.43-2.42-3.22-3.26-1.55-1.3 2.58-.43 5.53-.61 8.39-.52-.67-.68-2.11-2.28-2.58l-1.21 30.65c-.15 3.91-8.29 3.08-11.5 1.05-1.56 6.15-.27 11.55-.71 17.82-3.08.57-5.64.25-8.99.04l.33 8.41-14.51.15v11.29l-27.7-.59c-1.3-.03-2.85-1.82-5.1-1.61-5.94.55-2.38-7.29-5.29-12.45l-6.85-.63C-.07 307.96 0 299.9 0 290.52L.32 36.57c2.73-1.35 5.21-.84 7.94-1.19l1.25-9.12 10.16-1.5.32-9.05 9.36-1.78c.18-2.99 2.07-8.64 5.7-8.63l19.71.05c4.4.01 4.89-1.77 7.51-4.19 2.37-2.19 15.25-.75 16.62.09 1.24.76.99 2.66.99 3.99Zm60.71 207.27-12.72-.07-.13-19.43-14.88-.18v-15.07l-10.88-.07v-14.85l-6.19-.13-.23-9.95h16.29l-.02-15.98 6.01.2-.57-9.72 11.63.43-.19-12.88 8.26-.12-.06-12.83 7.15-.17V89.18c2.12-.41 3.79-.24 5.61.71l.5-9.16c1.16 1.45 5.17 2.24 6.28.88l.37-13.68 6.97.07.12-17.1 16.86.07-.02-14.57-30.27.03-.17 12.46-8.65-.18-.18 10.91-19.07.99.26 11.03-9.83-.15-.07 11.16-10.97.08.06 12.48-10.98.27.08 12.77-11.8-.07.23 15.53-13.1.11-.07-108.94-25.71-.11.2 16.21-11.27.29v13.36l-12.92.28.06 236.7 8.22.22.07 28.74 7.93.36.04-12.19 15.43-.08.08-18.1 6.49.07.02-36.77 7.98-.2v-47.82l12.09-.06.68 21.13 11.59.28-.25 14.86 12.56.17.34 11.55 10.83.55.54 14 9.86.4.58 9.16 10.07.06.1 9.75 6.94.09.19 6.3 13.64-.1.21-16.06c2.2-.34 3.86-.34 6.02-.03l.2 23.18 23.77-.15-.29-17.65-12.63.48-.06-13.42h-13.91l-.04-19.78-8.12.17-.63-15.7-6.3-.3-.25-12.2Zm857.66 76.45c3.82.15 6.37.42 9.25-.2l-.44-11.06 13.26-.28.4-11.77c4.48.29 8.52.43 12.13-1.7l-.08-10.19c4.1-.14 7.59.52 11.71-.54-.28-2.1-1.02-6.46.92-7.66 3.56-2.2 8.15-1.6 11.8-1.72l.36-12.36 11.12.22.07-11.9 10.1.1.08-11.09 14.76-.04.05 15.88 7.15.17.13 18.58 11.65.19.07 11.11 9.93.06.08 11.14 11.69.1.08 8.62 8.73-.09c.32 3.12.25 6.15-.21 9.5l8.1.18-.2 14.68c3.5-.13 6.79-.56 10.27.19l.29 10.55c4.03.14 7.3.5 10.84-.37l-1.07-26.41 8.44-.18v-15.91l-11 .03v-21.33l-8.97-.04-.33-22.62-8.71-.12.06-20.69h-11l-.13-12.97-7.92.33-.04-16.52-10.47-.42-.08-25.56 11.99.08.54-15.12 7.59.06.52-12.07 11.95.05.1-11.72 9.78.42.12-9.73 8.4-.05-.38-14.05h9.05V69.85l9.89-.2.44-12.46 8 .32-.03-23.43-15.26.28-.63 10.01-9.59-.18.06 10.64-15.85.12-.41 13.77-24.64.07-.09 10.55-10.17-.14.12 17.21-9.82-.4-.11 11.76-12.88.08-.14 11.13-9.93-.19-.06 13.53-6.9.37-.12-14.85c-.84.56-3.6.67-3.63-.2l-.4-13.12-8.61.02.4-13.81-13.29-.07.08-13.83-13.5.43V60.5l-13.4.3c-.48 1.87-1.44 3.23-3.06 3.13-1.2-.07-2.43-.03-2.75-1.55-.19-.9-.28-2.15-.1-4.47l-44.43-.22.06 11.16 12.72-.07-.02 19.29 11.6.13.03 19.11 12.17-.43.23 13.73 11 .09.41 12.51 7.97.06-.03 19.39 15.79.38c-.03 6.92-.75 13.18 1.65 18.4.77-.08 1.24-.81 1.34-1.11.27-.83.89-.38.98-.05.15.54.12 2.24-.19 2.25l-8.87.22-.29 16.65-10.92-.53-.3 13.39-13.4.38-.12 17.85-9.98-.59-.09 14.11-9.91.38-.14 14.29-8.92-.15.04 24.73-7.99.11-.03 13.31-10.05.08.46 23.22 11.54-.26.06-9.98 11.87-.02-.39-10.77ZM227.2 259.84l41.47.05c.34-2.01.25-3.32-.03-5.75l16.11.61-.09-7.76 7.49-.27.39-8.93 13.26-.08v-13.04h16.79l-.06-19.02 8.34.06.03-17.71c2.17.15 3.89.47 5.85.03l.26-31.34c.02-2.22-1.51-3.79-1.91-5.2l-.41-27.43-9.39.19-.1-16.98-8.62-.42-.38-17.02-13.42-.04.03-15.88-8.99.63-1.02-10.15h-23.01l-.1-7.65-53.77.03-.19 10.87-11.79-.56-.12 9.61-11.2.11c-.75 3.39-.25 6.27-.14 10.04l-7.6-.02.08 9.75-11.25-.37-.27 14.18-8.47.21-.59 13.3-8.55-.08v32.12l-7.89-.07-.06 21.59 7.93-.14-.31 24.32 7.44.19.39 15.18 9.42.02.13 12.71 16.88-.04.13 11.19 8.88-.09.2 10.3 27.01.55 1.22 8.19Zm424.29-118.23-42.15.66-41.48.62-.04 9.68-8.01-.04-.03 22.08 14.84.18-.07 12.94 17.14-.73c.41-3.56.01-6.28-.51-9.25l18.8.02.13 18.9-8.53.09.16 8.01-12.35.03.39 10.7-19.9-.12-.13 7.56-21.41-.15-.38-17c-2.3.5-4.23.81-6.07.03l.22-13.29-12.09-.03v-54.37l12.31.15-.03-13.76 9.67.11-.12-23.56 38.85-.07-.03 11.71 9.14.11-.38 6 19.67-.1.03-15.78-6.22-.27.09-6.99 8.76-.08.06-26.7-12.93-1.22v-9.75l-76-.19-.14 10.95-9.2.12-.18 11.55-9.45.44.6 9.46-10.63.19.04 11.29-6.16-.19-.03 20.3h-8.94v83l6.97.04.11 23.13 10.53-.84.4 13.96h13.07l-.02 10.57h17.83c.5 2.91.59 5.23.35 8.08l45.68.03.18-9.71 14.76.28.05-9.77 14.73.18-.11 37.44 8.45.46-.19 20.94 6.17.18.05 13.96c2.3.69 4.5.93 6.44.23l-.49-60.11 5.25-.32-.26-18.88 1.32-5.01-.15-57.69-9.41-.03c-.78 0-1.32-1.25-1.42-1.71-.06-.31.25-1.33.87-1.34l13.7-.33.35-15.75 7.72-.06-.25-11.18Zm263.17 93.88-9.51-.14c-.23-1.59-.43-2.78-1.19-4.09l-17.66.08.05-6.63 19.34.02-.6-11.76-42.21-.24-.19 8-16.92-.07V59.43l-13 .01v21.11l-7.92.02-.11-21.3-12.21-.2-.04 25.52-7.72.1.04 30.98-5.99.24.11 103.76c-2 1.05-3.74.37-5.48.49l.08 24.47 7.17.27.12 14.09 14.01-.18-.13-8.56 19.83-.16.56-5.11 79.46.06.12-9.55Zm-253.59 27.25c-.37 1.46-.27 2.96.3 5.02-3.2 0-5.08-.18-7.53-.85l-.45-26.24-1.36 10.17v25.14l6.76-.29v19.03l7.17-.07.16-6.2 6.84.21-.05-39.62c2.1.23 6.8.6 6.9-1.15l.45-7.57 6.08-.09-.18 9c2.3.46 4.16.53 6.63.29l-.02-27.5 11.02.21-.04-46.64 60.82.1.2-11.93 15.68.02v-18l8.3.19v-12.25l-37.51.13-.6 4.97-45.87-.07V99.76l52.19.09-.12-11.97 19.82.33.06-10.42-8.6.2.05-4.25 29.61.03-.11-14.32-162.84.02.33 18.95 26.44.03-.06 9.13-11.5-.09-.17 8.06c1.71.13 2.86.28 4.02.94l-.14 11.21 7.49.22-.2 154.83Zm301.72-.13-.05-50.75 7.01-.27V76.95l-8.59-.25-.3-16.92h-17.43l-.13 11.21-4.62-.27.03-11h-15.97v168.22l12.24.18.09 26.21c3.2.05 5.29-.36 7.59.24l.13 8.11 4.91-.04-.05-25.76h5.08l.02 25.98 10.03-.24Zm-504.94 14.08 11.8-.09-.17-15.73 5.38-.33-.28-60.85-.52-108.87-7.19-.22-.09-26.09-10.94-.06-.5 12.51-4.46-.33-.04-12.7-16.21-.11.12 97.38-9.89-.47-.13-20.71-10.03-.05.04-11.59-10.96-.08.04-18.51-8.94.05-.11-8.24c-2.02-.08-3.59.08-5.31-.48l.11-10.36-7.75.11-.45-10.47-11.49.31-.11-8.88-6.89-.13-.11-8.93-28.59-.14.04 23.71 8.54.32-.09 13.3 3.46 2.01.18 135.9c3.27-.19 5.53-.39 8.1.29l.07 20.58 7.05.04-.15 17.12c3.24.59 5.57.45 8.17-.1l-.29-35.67 9.61-.08-.02-28.19c2.96.24 5.17.79 8.39.07l-.33-55.98c1.41-.23 2.33-.15 3.94.07l.34 17.79 9.46.14.21 14.1 9.38.11.78 12.49c2.86.57 5.24.05 8.29-.64l.45 19.72 11 .06.07 11.14c3.42-.18 6.31-.57 9.58.19l.19 14.65 7.89 1.08.33 12.89 8.93.06.06 16.89Zm181.97-162.97-.1-9.06-10.76-.1v9.02l10.86.13Zm363.81 92.3.42-4.26 10.55-1.12.21-10.82 5.86-.34c1.25-.07.89-3.87.24-5.14 1.09-.81 2-.89 3.67-1.05v-11.8c3.33-.87 4.02-3.5 3.01-7.36-2.53-.84-5.52-.27-8.76-.29l.1-9.29c-1.48-1.14-3.8-1.07-6.72-.34-.89-3.52-.38-6.8-.21-10.16l-8.54.66v-13.08l-7.52-.1-.15-7.63c-1.1-.37-2.06-.35-3.07.13l.09 93.61c0 1.09 3.15.96 3.13-.39l-.03-2.49c-.07-5.38 6.49-1.09 7.69-4.66.33-.98.55-3.05.01-4.08Z" class="cls-1"/><path d="M334.8 272.21c-2.83.96-6.15.74-9.95.54l-.44 11.54c-2.52.87-4.83.85-8.11.44l-.71 11.86-17.77.26c-.02 2.7.34 4.88-.59 7.57l-66.22-.03-.54-5.5c-5.52-.3-10.75.25-16.46-2l-.26 23.73-5.94.14-.2 10.09c-.03 1.52-3.99 1.96-5.69 1.95l-32.69-.27-1.04-5.51c-3.24-.15-7.88.19-9.86-2.48 4.25-10.67-8.87-2.91-24.78-8.35l.87-4.01c.32-1.47-4.71-2.31-4.99-3.38-.19-.74.03-1.82.57-3.69l-7.85-.82c-.1-4.89-3.86-7.18-7.9-8.13-.9-.35-.81-3.63-1.63-3.86l-4.11-1.16c-1.73-1.71-.31-4.93-.41-6.67l.57 1.75c.31 1.06 1.49-.34 1.72-.92 2.77-1.14 6.24-.77 9.3-.33l.29 8.32 11.18-.1c-.75 1.83-.42 4.4.5 4.92.84.47 2.63-.08 4.15-.75l.44 7.41 11.79.24.06 6.49 10.93.33c1.1.03 1.69 2.96 1.37 4.74l41.42.15-.19-35.95-5.68-5.21c-.71-.09-2.79.14-3.03-.45s-.06-2.44.46-3.35l11.44-.02.25 10.83 17.82.23c-.24 1.5-.29 4.54.86 5.28l61.98-.1.34-8.26 19.64-.08.11-8.81 7.13-.04c3.94-1.25 3.86-6.93.98-10.16l10.19-1.7c2.73-1.98 1.13-6.94.86-10.04 2.99-.65 5.81-.53 9.53-.06l.3 23.36ZM779.97 217.81l-49.41.05-.22 34.48c-2.47.74-4.81.41-7.56.52.03 6.24.26 11.62-1.08 17.8l-9.82.52c1.59 8.01.08 15.49-.74 23.4-3.1 1.18-6.24 1.1-9.9 1.49l-.45 6.71c-3.14 1.08-3.93 3.83-2.63 7.44-3.51 1.1-6.62.32-10.36.64l-1.11 13.98c-6.17.21-11.87-.61-17.78 1.78-1.02-1.66-.49-3.07-.36-4.74.23-3.03-2-4.76-4.92-4.74l-6.51.03-.54 31.17c-5.28.43-11.46 1.39-16.13-.35-.89-2.4-1.8-5.56-5.29-5.82-1.33-1.32-1.32-4.76-1.05-6.32l12.69.13v-36.14c3.35.15 5.88-.55 9.59-1.78l.47 12.92c6.51 1.24 12.95.67 19.65.6l.28-12.81 9.87-.3.19-14.48 6.49.27.57-9.49 10.85-.12-.06-18.25 7.61-.06.07-18.58 9.43.16v-34.28l48.48.1-.17-7.82c2.19 1.39 8.09 1.59 8.32-1.24l.9-11.01c1.6 11.35.65 22.73.65 34.13ZM1153.44 325.2c-3.7-1.36-7.57-1.94-11.83-1.86.5-2.81-.08-4.63-1.45-5.55-1.07-.72-2.8-.83-4.34-1.22-1.64-.41-1.1-3.45-1.52-4.36-2.52-1.02-6.12-1.93-8.4-3.66l-.35-6.72c-2.81-.3-5-1.07-6.77-2.54l1.68-1.29c.59-.45-.08-1.98-.54-1.76-3.59 1.75-5.92-1.64-7.86-2.36-3.45-1.28-4.25-2.03-7.02-4.62-1.38-1.3-5.6-1.58-4.11-5.81.26-.72-.3-2.26-.9-2.39l-2.14-.48c-2.64-6.97-10.17-9.11-11.13-6.19-.65 1.98.64 5.03-.85 6.98-1.58 2.05-6.3.59-7.69 2.36-1.27 1.62.34 6.93-1.47 7.37l-3.64.89-.81 6.3-13.77.46c.07 2.08.63 5.46-.98 6.81-2.44 2.03-6.47.99-9.69 1.24.09 3.92 1.48 7.36-.43 10.9-4.34.29-10.97-.67-13.98 2.2-1.91 3.46-1.16 8.59-1.05 12.21-4.75 1.14-8.95.58-14.08.39l-2.16 8.98-30.04.15c-.12-2.62-.17-4.22-.91-6.44-3.67.98-4.72-2.11-7.18-3.71l-3.66-2.37 29.37-.4.02-11.98 14.89-.12.08-12.87 15.21-.05-.19-9.1c3.13-.69 5.59-.35 8.87-.11l.25-9.19 21.68-.57-.03-12.32 8.15.31c.09-4.08-.7-7.88.4-11.82.41-1.48 3.89-1.64 5.23-1.28l.3-4.75c2.97-.31 5.07-.59 8.02.32-.95 1.84-.02 5.48 2.07 5.28 1.68-.16 6.09-2.03 6.73.63l1.83 7.71c.53 2.25-.88 5.25.92 7.7l12.18-.3 1.25 12.19 12.38.29c-.41 3.65-1.4 6.96.82 9.27s4.91 3.84 9.57 2.37l.33 9.32 8.03-.12.04 8.15c2.88.23 6-.58 8.74.6 2.12.91 2.23 5.08 1.91 6.92ZM608.64 299.72c-2.18.44-4.04-.3-6.96-1.1.28 1.93.16 5.72-1.53 6.77l-56.51.03c-3.18-4.08-8.82-7.3-13.02-9.2-1.51-2.48-2.39-4.77-6.13-5.26l-11.67-1.54c1.07-2.48.95-4.1-.33-5.87-1.07-1.47-4.26-1.79-5.32-3.09-2.11-2.59-4.13-5.12-7.37-4.36l.03 34.15-32.84.48c.77-6.73-6.78-5.59-6.96-7.82l-.41-4.9c-1.75-.54-5.45.47-7.03-1.15-1.44-1.48-.74-4.68-.51-6.31l7.67.33c-.11 2.63-.4 5.03.8 7.27l29.27.19v-41.73l9.96-.82.1 11.98 9.98.57.1 9.33 19.66.19.41 6.65c.11 1.73 2.91 2.58 3.01 5.3l56.64-.07c.86-4.04.87-7.51.64-11.43l11.24-.07c-.36 6.87-1.32 13.19.93 19.75 2.28-.59 6.07.07 6.14 1.72ZM1160.41 198.28c-2.63 1.26-6.92-1-7.5-3.23-.2-.76 1.47-2.33 1.57-2.97.12-.75-1.02-1.47-1.37-2.58l-2.84-8.92c-.29.82-1.18 1.81-1.93 1.82-1.4 0-2.72-.87-2.69-2.57l.31-15.89c2.68-1.6 5.49-1.95 9.18-2.1-.93-4.34.11-6.4 2.03-9.29 1.42-2.13.26-6.22.37-8.5 3.13-.81 5.3-.48 8.13.06l.1-12.17c2.87.1 5.13.23 7.73-.38l.12-7.77 6.8-.16.24-12.98 6.04-.07.06-11.8 6.89-.11-.12-9.85 8.21-.09-.33-15.86 6.27-.19c-.04-1.32.11-3.37.84-3.87 1.08-.75 3.25-.62 5.24-.31l.94-35.75c3.34 1.47 8.57 3.9 8.73 8.14l.45 11.92.67 21.6-5.67.49c.41 3.05 1.7 6.7.14 9.15-1.3 2.03-5.15 1.76-7.01 1.05l-.56 10.11c-4.34.32-4.65 3.02-4.84 6.65-.12 2.41-4.59 2.53-6.75 1.69l-.45 17.78c-2.12.84-4.33.7-6.6.73l-.59 10.11c-1.27 2.43-5.35 1.58-7.41.37l-.31 12.98-8.5 1.72-.54 10.09c-3.15 2.43-6.79 2.47-10.67 2.27l-.2 11-11.03.51c-.56 3.54-.18 7.85.54 11.16 1.74.42 4.36.43 5.62 1.87.44.5 1.2 8.89.66 14.16ZM934.66 287.86l-76.45.12c-1.24 1.36-2.67 3.5-4.7 3.53l-12.63.2-.2 7.01-35.93.12c-3.13.01-5.34-.71-7.16-2.67l-1.28-6.89c-.16-.88-3.65-.51-4.52-1.01-1.25-.71-.91-2.3-1.27-3.39l41.76.27.31-10.39 20.99-.08c.41-.66 1.19-3.19 2.18-3.19l58.85-.17.02 6.71 20.14.06-.1 9.75ZM95.53 277.84c-.23 7.42-.78 14.83-.6 22.83l-5.8 1.14c-1.04 3.5.19 6.6.1 9.82-.06 2.17-3.95 3.15-6.04 2.38l-.5 10.54-9.69.4c.65 2.17 1.64 6.42-.23 7.42-2.68 1.44-6.05.64-8.91.61-1.94 3.86-2.86 7.88-3.22 12.72l-31.78.06c.38-3.24-.02-5.11-1.89-6.52-2-1.5-4.22-1.25-6.86-1.95-1.84-.49-1.55-4.67-1.14-6.06l27.71.59v-11.29l14.5-.15-.33-8.41c3.35.21 5.91.53 8.99-.04.44-6.27-.85-11.67.71-17.82 3.21 2.03 11.35 2.86 11.5-1.05l1.21-30.65c1.6.47 1.75 1.91 2.28 2.58.18-2.86-.69-5.81.61-8.39.84-1.67 3.78.12 3.26 1.55-.25.68-.25 2.26-.15 3.53l6.76.17-.5 16.01ZM451.61 289.16c-1.77.73-5.58.55-5.65-2.41-.05-2.02-.48-5.32-2.03-5.35l-4.72-.09-3.68-7.22-4.31-1.31c-1.63-.5-.49-6.28-2.39-7.55s-8.21.35-7.92-5.61c.06-1.28.17-4.57-1.03-4.93-2.37-.71-4.58-.12-7.04.26-.59 2.95-.03 6.63-1.54 9.21-1.11 1.88-4.79.98-6.16 1.72-.67.52-.24 3.36-.67 4.03s-1.54 1.26-3.4 1.53l-.62 26.09c-1.47 1.56-5.18 1.22-7.48 1.16-.17 3.57.35 6.35-.7 9.92h-29.86c.51-3.52-2.04-4.65-4.1-5.39.21-4.39-2.52-8.29-7.19-8.57-.98-.06-2.92-.66-3.1-1.45-.15-.68.77-1.75.9-2.49l38.72.07-.14-17.9 5.36-.31v-19.64c3.9.22 7.15-.09 10.69-1.43l.15-11.73 15.11.84c.03 2.87-.13 4.98.64 7.71l11.24.6c-.08 10.69-1.6 16.43 7.03 18.61l.11 8.16 8.68.13.49 6.84c3.8.48 4.35 3.74 4.63 6.48ZM870.75 204.07c-3.14.02-6.39.64-10.44-.1l-.24-122.08c0-3.45 1.39-3.94 2.23-6.66l.62-18.24c4.23 1.39 5.49 7.08 10.81 10.77l-.03 20.72c-.81.37-2.92 1.46-2.92 2.42l-.04 113.18ZM1154.7 328.99l32.01.26-.59-30.39 7.66-.22-.21-40.82c-.01-2.91-1.4-5.67-.8-8.24 1.82.43 2.54 2.5 2.15 4.91 2.24.87 3.92.95 5.78 2.47-.79 2.62-1.62 7.19.55 9.2.87.77 4.33.58 4.34 2.84l.12 41.53-7.95.47-.49 32.41-24.71.22c-3.58.03-5.82-4.75-6.9-7.54l-10.53-2.76c-2.01-.53-.14-3.31-.42-4.33ZM92.88 76.23c.13 3.74-6.2 2.01-3.67 12.69l-6.34-.24-.08-29.4c-1.58-.29-2.41-.83-2.82-1.32-.51-.6-.2-2.09-.2-3.14l.12-49.58c5.42-.83 3.83 5.68 9.71 8.87l.33 65.33c2.67-1.1 1.51-2.55 1.7-3.12.1-.29.77-.47 1.25-.1ZM961.87 299.84l-19.72.58c-.3-2.18-.01-4.06-1.14-5.74-2.2.12-4.16-.4-5.3-1.42s-.9-3.06-1-4.53l27.01-.23.15 11.33ZM203.47 47.43l-4.05 7.02c-.59 1.01-4.5.64-4.53-.48-.21-7.79.49-15.2-.83-22.21 4.71 3.93 10.74 13.37 9.42 15.67ZM421.55 100.26l-.12 12.56c-.01 1.08.26 2.55-.14 3.1-.45.6-3.1.43-3.12-.31l-.2-15.63c.79.14 2.38-.29 3.58.28M107.94 281.55c-2.15.08-4.64.16-7.03-.84-1.23-.52-1.23-2.01-1.14-2.84.17-1.63.6-3.68 1.82-4 1.63-.43 3.64-.39 5.82-.25.95 2.51.38 5.3.52 7.94ZM1189.53 244.5l-5.78.27-.02-9.99c4.3.34 6.84 5.74 5.8 9.72M631.59 335.73c-1.5-.09-2.44-.73-2.64-1.82-.29-1.58-.22-2.75.07-4.17.75.44 2.98-.55 3.38.91.55 1.98.1 3.95-.81 5.08" class="cls-3"/><path d="m998.26 288.96.39 10.77-11.87.02-.06 9.98-11.54.26-.46-23.22 10.05-.08.03-13.31 7.99-.11-.04-24.73 8.92.15.14-14.29 9.91-.38.09-14.11 9.98.59.12-17.85 13.4-.38.3-13.39 10.92.53.29-16.65 8.87-.22c.31 0 .34-1.71.19-2.25-.09-.33-.71-.77-.98.05-.1.3-.57 1.04-1.34 1.11-2.4-5.21-1.68-11.48-1.65-18.4l-15.79-.38.03-19.39-7.97-.06-.41-12.51-11-.09-.23-13.73-12.17.43-.03-19.11-11.6-.13.02-19.29-12.72.07-.06-11.16 44.43.22c-.18 2.31-.09 3.56.1 4.47.32 1.52 1.55 1.47 2.75 1.55 1.62.1 2.57-1.26 3.06-3.13l13.39-.3v16.76l13.51-.43-.08 13.83 13.29.07-.4 13.81 8.61-.02.4 13.12c.03.87 2.79.75 3.63.2l.12 14.85 6.9-.37.06-13.53 9.93.19.14-11.13 12.88-.08.11-11.76 9.82.4-.12-17.21 10.17.14.09-10.55 24.64-.07.41-13.77 15.85-.12-.06-10.64 9.59.18.63-10.01 15.26-.28.03 23.43-8-.32-.44 12.46-9.89.2v14.87h-9.05l.38 14.05-8.4.05-.12 9.73-9.78-.42-.1 11.72-11.95-.05-.52 12.07-7.59-.06-.54 15.12-11.99-.08.08 25.56 10.47.42.04 16.52 7.92-.33.13 12.98h11l-.06 20.68 8.71.12.33 22.62 8.97.04v21.33l10.99-.03v15.91l-8.44.18 1.07 26.41c-3.54.87-6.81.51-10.84.37l-.29-10.55c-3.47-.74-6.77-.31-10.27-.19l.2-14.68-8.1-.18c.46-3.35.53-6.38.21-9.5l-8.73.09-.08-8.62-11.69-.1-.08-11.14-9.93-.06-.07-11.11-11.65-.19-.13-18.58-7.15-.17-.05-15.88-14.76.04-.08 11.09-10.1-.1-.07 11.9-11.12-.22-.36 12.36c-3.64.12-8.24-.48-11.8 1.72-1.93 1.19-1.2 5.56-.92 7.66-4.12 1.06-7.61.4-11.71.54l.08 10.19c-3.61 2.12-7.65 1.99-12.13 1.7l-.4 11.77-13.26.28.44 11.06c-2.88.61-5.43.35-9.25.2ZM140.6 212.51l.25 12.2 6.3.3.63 15.7 8.12-.17.04 19.79h13.91l.06 13.41 12.63-.48.29 17.65-23.77.15-.2-23.18c-2.16-.31-3.82-.31-6.02.03l-.21 16.06-13.64.1-.19-6.3-6.94-.09-.1-9.75-10.07-.06-.58-9.16-9.86-.4-.54-14-10.83-.55-.34-11.55-12.56-.17.25-14.86-11.59-.28-.68-21.13-12.09.06v47.82l-7.99.2-.02 36.77-6.49-.07-.08 18.1-15.43.08-.04 12.19-7.93-.36-.07-28.74-8.22-.22-.06-236.7 12.91-.28V31.26l11.28-.29-.2-16.21 25.71.11.07 108.94 13.1-.11-.23-15.53 11.8.07-.08-12.77 10.98-.27-.06-12.48 10.97-.08.07-11.16 9.83.15-.26-11.03 19.07-.99.18-10.91 8.65.18.17-12.46 30.27-.03.02 14.57-16.86-.07-.12 17.1-6.97-.07-.37 13.68c-1.11 1.35-5.13.57-6.28-.88l-.5 9.16c-1.83-.96-3.5-1.12-5.62-.71v12.51l-7.15.17.06 12.83-8.26.12.19 12.88-11.63-.43.57 9.72-6.01-.2.02 15.98H95.57l.23 9.95 6.18.13v14.85l10.87.07v15.07l14.89.18.13 19.43 12.72.07ZM651.49 141.61l.25 11.18-7.72.06-.35 15.75-13.7.33c-.62.01-.93 1.03-.87 1.34.1.46.64 1.71 1.42 1.71l9.41.03.15 57.69-1.32 5.01.26 18.88-5.25.32.49 60.11c-1.94.7-4.15.47-6.44-.23l-.05-13.96-6.17-.18.19-20.94-8.45-.46.11-37.44-14.73-.18-.05 9.77-14.76-.28-.18 9.71-45.68-.03c.24-2.85.15-5.17-.35-8.07h-17.83l.02-10.58h-13.07l-.4-13.95-10.53.84-.11-23.13-6.97-.04v-82.99l8.93-.01.03-20.3 6.16.19-.04-11.29 10.63-.19-.6-9.46 9.45-.44.18-11.55 9.2-.12.14-10.95 75.99.19v9.75l12.94 1.22-.06 26.7-8.76.08-.09 6.99 6.22.27-.03 15.78-19.67.1.38-6-9.14-.11.03-11.71-38.85.07.12 23.56-9.67-.11.03 13.76-12.32-.15v54.37l12.11.03-.22 13.29c1.84.78 3.77.47 6.07-.03l.38 17 21.41.15.13-7.56 19.9.12-.39-10.7 12.35-.03-.16-8.01 8.53-.09-.13-18.9-18.8-.02c.52 2.96.92 5.68.51 9.25l-17.14.73.07-12.94-14.84-.18.03-22.08 8.01.04.04-9.68 41.48-.62 42.15-.66Z" class="cls-2"/><path d="m227.2 259.84-1.22-8.19-27.01-.55-.2-10.3-8.88.09-.13-11.19-16.88.04-.13-12.71-9.42-.02-.39-15.18-7.44-.19.31-24.32-7.93.14.06-21.59 7.9.07v-32.12l8.54.08.59-13.3 8.47-.21.27-14.18 11.25.37-.08-9.75 7.6.02c-.1-3.77-.61-6.65.14-10.04l11.2-.11.12-9.61 11.79.56.19-10.87 53.77-.03.1 7.64h23.01l1.02 10.16 8.99-.63-.03 15.88 13.42.04.38 17.02 8.62.42.1 16.98 9.39-.19.41 27.43c.4 1.42 1.93 2.99 1.91 5.2l-.26 31.34c-1.96.44-3.68.12-5.85-.03l-.03 17.71-8.34-.06.06 19.02h-16.8v13.05l-13.26.08-.39 8.93-7.49.27.09 7.76-16.11-.61c.28 2.43.36 3.74.03 5.75l-41.47-.05Zm-7.03-45.49 48.5-.3.15-9.29 17.38-.05-.37-11.94 10.66-.03-.29-14.94 8.28-.14-.06-16.49c-2.21-.66-4.08-.41-6.68-.33l-.1-28.03-7.96-.13-.56-11.84-8.85-.52.1-7.28-11.5-.15-.24-12.99-36.64-.03-.23 8.92h-17.91l-.05 11.72-10.97.24.03 15.99-12.95-.05.33 15.45 4.69.67.46 7.96-7.37-.08-.13 17.06h7.87l-.04 15.1 10.07-.05.04 11.94 13.97.08.34 9.54ZM457.85 276.69l-.06-16.89-8.93-.06-.33-12.89-7.89-1.08-.19-14.65c-3.27-.76-6.17-.37-9.58-.19l-.07-11.14-11-.06-.45-19.72c-3.05.68-5.43 1.21-8.29.64l-.78-12.49-9.38-.11-.21-14.1-9.46-.14-.34-17.79c-1.61-.22-2.53-.3-3.94-.07l.33 55.98c-3.22.72-5.44.16-8.39-.07l.02 28.19-9.61.08.29 35.67c-2.6.54-4.93.68-8.17.1l.15-17.12-7.05-.04-.07-20.58c-2.56-.68-4.83-.48-8.1-.29l-.18-135.9-3.46-2.01.09-13.3-8.54-.32-.04-23.71 28.59.14.11 8.93 6.89.13.11 8.88 11.49-.31.45 10.47 7.75-.11-.11 10.36c1.72.56 3.3.4 5.31.48l.11 8.24 8.94-.05-.04 18.51 10.96.08-.04 11.59 10.03.05.13 20.71 9.89.47-.12-97.38 16.21.11.04 12.7 4.46.33.5-12.51 10.94.06.09 26.09 7.19.22.52 108.87.28 60.85-5.38.33.17 15.73-11.8.09ZM666.12 288.45c-.47-.01-1.18-.17-1.69-.54l.34-19.19c0-1.07-1.46-1.35-1.76-.55-.12-1.71-1.95-3.38-1.95-5.43l.2-154.83-7.49-.22.14-11.21c-1.16-.67-2.31-.81-4.02-.94l.17-8.06 11.5.09.06-9.13-26.44-.03-.33-18.95 162.84-.02.11 14.32-29.61-.03-.05 4.25 8.6-.2-.06 10.42-19.82-.33.12 11.97-52.18-.09v38.99l45.85.07.6-4.97 37.51-.13v12.25l-8.31-.19v18l-15.67-.02-.2 11.93-60.82-.1.04 46.64-11.02-.21.02 27.5c-2.47.24-4.33.18-6.63-.29l.18-9-6.08.09-.45 7.57c-.1 1.75-4.8 1.39-6.9 1.15l.05 39.62-6.84-.21ZM914.66 235.49l-.12 9.55-79.46-.06-.56 5.11-19.83.16.13 8.56-14.01.18-.12-14.09-7.17-.27-.08-24.47c1.74-.12 3.48.56 5.48-.49l-.11-103.76 5.99-.24-.04-30.98 7.72-.1.04-25.52 12.21.2.11 21.3 7.92-.02V59.44l13.01-.01v161.23l16.91.07.19-8 42.21.24.6 11.76-19.34-.02-.05 6.63 17.66-.08c.77 1.31.97 2.5 1.19 4.09l9.51.14ZM962.79 262.61l-10.03.24-.02-25.99h-5.08l.05 25.77-4.91.04-.13-8.11c-2.3-.6-4.39-.19-7.59-.24l-.09-26.21-12.24-.18V59.71l15.96.01-.03 11 4.62.27.13-11.21h17.43l.3 16.92 8.59.25v134.63l-7.01.27.05 50.75Z" class="cls-2"/><path d="M1018.93 154.55c-6.02 3.34-8.94-3.67-16.17-.54.35-.73-.14-1.53-1.01-1.12v44.79c0 .72.62 1.13 1.02 1.08 0 2.51-.33 4.98.87 7.26.54 1.03.32 3.1-.01 4.08-1.2 3.56-7.76-.72-7.69 4.66l.03 2.49c.02 1.35-3.13 1.48-3.13.39l-.09-93.61c1.01-.49 1.97-.51 3.07-.13l.15 7.63 7.54.1v13.08l8.52-.66c-.17 3.36-.68 6.64.21 10.16 2.92-.73 5.24-.8 6.72.34ZM661.07 262.74c0 2.05 1.83 3.72 1.95 5.43l1.41 19.75c.51.37 1.22.52 1.69.54l-.16 6.2-7.17.07V275.7l-6.76.29v-25.14l1.36-10.17.45 26.24c2.45.67 4.33.85 7.53.85-.56-2.06-.67-3.56-.3-5.02Z" class="cls-3"/><path d="m220.17 214.35-.34-9.54-13.97-.08-.04-11.94-10.07.05.04-15.1h-7.87l.13-17.06 7.37.08-.46-7.96-4.69-.67-.33-15.45 12.95.05-.03-15.99 10.97-.24.05-11.72h17.91l.23-8.92 36.64.03.24 12.99 11.5.15-.1 7.28 8.85.52.56 11.84 7.96.13.1 28.03c2.6-.08 4.47-.33 6.68.33l.06 16.49-8.28.14.29 14.94-10.66.03.37 11.94-17.38.05-.15 9.29-48.5.3Zm45.65-30.58v-9.88c3.08.25 5.37.81 8.24.13l-.22-28.38c-2.97-.79-5.49-.33-8.43-.3l-.33-9.57-26.59-.09.1 7.38-9.8.55.09 30.02 8.22.26c.96 3.3.79 6.32.74 9.88h27.99Zm-38.1-12.62-.1-25.25c-.58-1.12-4.08-1.22-4.83-.13-1.2 12.99-.65 26.48.44 39l.75-12.73c1.14.01 3.01-.13 3.74-.89M664.44 287.91l-1.41-19.75c.29-.79 1.76-.51 1.76.55l-.34 19.19ZM1002.76 154.01v44.75c-.4.05-1.01-.36-1.01-1.08v-44.79c.87-.41 1.35.39 1.01 1.12" class="cls-1"/><path d="M265.82 183.77h-27.99c.05-3.57.22-6.59-.74-9.89l-8.22-.26-.09-30.02 9.8-.55-.1-7.38 26.59.09.33 9.57c2.94-.02 5.46-.49 8.43.3l.22 28.38c-2.87.68-5.15.12-8.23-.13v9.88Z" class="cls-2"/></g></svg>