<svg xmlns="http://www.w3.org/2000/svg" data-name="Capa 2" viewBox="0 0 114 152.67">
  <g data-name="Capa 1">
    <path d="M98.65 132.03c-2.91 4.55-5.54 7.01-10.06 9.83-7.04 4.4-13.43 10.49-22.66 10.4-3.2-.03-8.35.7-11.4.28-8.99-1.24-17.85-4.47-25.7-9.2-5.15-3.1-9-8.65-12.81-13.36l-.44-7.05-4.32-.73c-1-3.39-1.96-7.09-3.32-9.98-9.77-20.77-9.96-42.66-3.63-64.38 3.5-12 8.62-22.8 18.99-30.75 1.74-.9 5.69-2.27 7.37-3.3l13.36-8.21c.62-.04 1-.18.75-.39L42.67 3.4c14.97-6.37 33.59-4.11 43.58 9.42 5.77.91 11.6 5.07 13.24 12.86l-8.51-4.38 7.86 9.48-2.77 2.89c-.48.5 1.95 2.09 2 2.85.2 3.47.76 10.14 5.6 11.5l-3.47-9.25c6.07.67 7.48 4.96 8.38 9.14l4.81 22.41-2.7-1.53c-2.77-1.57 3.1 4.89 3.21 7.67.56 14-1.48 27.12-6.17 40.13-2.04 5.65-5.72 10.16-9.09 15.44Zm-37.54-7-2.77 4.73c1.75-.28 4.02-.45 6.14-.32l-1.93-3.91c9.31-2.92 15.75-9.4 19.76-17.95 4.46-3.8 6.29-9.59 6.1-15.43 3.27-8.89 2.51-17.79.15-26.76-1.43-5.47-2.7-10.97-4.73-16.35-4.25-11.25-15.67-17.38-27.79-17.34-1.88.44-5.72 2.06-7.31 3.11l-10.39 8.47c-11.97 11.34-14.08 32.98-9.37 49.13.83 2.85 1.43 4.97.65 7.79l16.56 19.76 5.33 6.11c2.5-2.94 6.66-4.19 9.59-1.03ZM33.65 143.5c-.38-5.28-4.33-5.89-6.7-8.28l-6.47-6.55c2.73 8.38 8.01 10.97 13.17 14.84Zm31.09-2.71c4.91 2.93 9.24.35 11.94-3.14z"/>
    <path d="M64.93 90.97c-4.17 1.74-8.51 2.88-12.71-.23-8.14-6.04-10.68-18.36-4.72-27.26 2.73-4.08 9.72-6.67 14.36-5.79 10.36 1.96 13.98 12.06 12.34 21.13-1.08 5.97-3.19 9.6-9.27 12.15"/>
  </g>
</svg>
